<svg xmlns="http://www.w3.org/2000/svg" width="384" height="504" viewBox="0 0 384 504"><rect width="384" height="504" fill="white"/><circle cx="19.3" cy="18.3" r="1.6" fill="#bbb" /><circle cx="39.6" cy="18.3" r="1.6" fill="#bbb" /><circle cx="59.9" cy="18.3" r="1.6" fill="#bbb" /><circle cx="80.2" cy="18.3" r="1.6" fill="#bbb" /><circle cx="100.6" cy="18.3" r="1.6" fill="#bbb" /><circle cx="120.9" cy="18.3" r="1.6" fill="#bbb" /><circle cx="141.2" cy="18.3" r="1.6" fill="#bbb" /><circle cx="161.5" cy="18.3" r="1.6" fill="#bbb" /><circle cx="181.8" cy="18.3" r="1.6" fill="#bbb" /><circle cx="202.2" cy="18.3" r="1.6" fill="#bbb" /><circle cx="222.5" cy="18.3" r="1.6" fill="#bbb" /><circle cx="242.8" cy="18.3" r="1.6" fill="#bbb" /><circle cx="263.1" cy="18.3" r="1.6" fill="#bbb" /><circle cx="283.4" cy="18.3" r="1.6" fill="#bbb" /><circle cx="303.8" cy="18.3" r="1.6" fill="#bbb" /><circle cx="324.1" cy="18.3" r="1.6" fill="#bbb" /><circle cx="344.4" cy="18.3" r="1.6" fill="#bbb" /><circle cx="364.7" cy="18.3" r="1.6" fill="#bbb" /><circle cx="19.3" cy="38.6" r="1.6" fill="#bbb" /><circle cx="39.6" cy="38.6" r="1.6" fill="#bbb" /><circle cx="59.9" cy="38.6" r="1.6" fill="#bbb" /><circle cx="80.2" cy="38.6" r="1.6" fill="#bbb" /><circle cx="100.6" cy="38.6" r="1.6" fill="#bbb" /><circle cx="120.9" cy="38.6" r="1.6" fill="#bbb" /><circle cx="141.2" cy="38.6" r="1.6" fill="#bbb" /><circle cx="161.5" cy="38.6" r="1.6" fill="#bbb" /><circle cx="181.8" cy="38.6" r="1.6" fill="#bbb" /><circle cx="202.2" cy="38.6" r="1.6" fill="#bbb" /><circle cx="222.5" cy="38.6" r="1.6" fill="#bbb" /><circle cx="242.8" cy="38.6" r="1.6" fill="#bbb" /><circle cx="263.1" cy="38.6" r="1.6" fill="#bbb" /><circle cx="283.4" cy="38.6" r="1.6" fill="#bbb" /><circle cx="303.8" cy="38.6" r="1.6" fill="#bbb" /><circle cx="324.1" cy="38.6" r="1.6" fill="#bbb" /><circle cx="344.4" cy="38.6" r="1.6" fill="#bbb" /><circle cx="364.7" cy="38.6" r="1.6" fill="#bbb" /><circle cx="19.3" cy="59.0" r="1.6" fill="#bbb" /><circle cx="39.6" cy="59.0" r="1.6" fill="#bbb" /><circle cx="59.9" cy="59.0" r="1.6" fill="#bbb" /><circle cx="80.2" cy="59.0" r="1.6" fill="#bbb" /><circle cx="100.6" cy="59.0" r="1.6" fill="#bbb" /><circle cx="120.9" cy="59.0" r="1.6" fill="#bbb" /><circle cx="141.2" cy="59.0" r="1.6" fill="#bbb" /><circle cx="161.5" cy="59.0" r="1.6" fill="#bbb" /><circle cx="181.8" cy="59.0" r="1.6" fill="#bbb" /><circle cx="202.2" cy="59.0" r="1.6" fill="#bbb" /><circle cx="222.5" cy="59.0" r="1.6" fill="#bbb" /><circle cx="242.8" cy="59.0" r="1.6" fill="#bbb" /><circle cx="263.1" cy="59.0" r="1.6" fill="#bbb" /><circle cx="283.4" cy="59.0" r="1.6" fill="#bbb" /><circle cx="303.8" cy="59.0" r="1.6" fill="#bbb" /><circle cx="324.1" cy="59.0" r="1.6" fill="#bbb" /><circle cx="344.4" cy="59.0" r="1.6" fill="#bbb" /><circle cx="364.7" cy="59.0" r="1.6" fill="#bbb" /><circle cx="19.3" cy="79.3" r="1.6" fill="#bbb" /><circle cx="39.6" cy="79.3" r="1.6" fill="#bbb" /><circle cx="59.9" cy="79.3" r="1.6" fill="#bbb" /><circle cx="80.2" cy="79.3" r="1.6" fill="#bbb" /><circle cx="100.6" cy="79.3" r="1.6" fill="#bbb" /><circle cx="120.9" cy="79.3" r="1.6" fill="#bbb" /><circle cx="141.2" cy="79.3" r="1.6" fill="#bbb" /><circle cx="161.5" cy="79.3" r="1.6" fill="#bbb" /><circle cx="181.8" cy="79.3" r="1.6" fill="#bbb" /><circle cx="202.2" cy="79.3" r="1.6" fill="#bbb" /><circle cx="222.5" cy="79.3" r="1.6" fill="#bbb" /><circle cx="242.8" cy="79.3" r="1.6" fill="#bbb" /><circle cx="263.1" cy="79.3" r="1.6" fill="#bbb" /><circle cx="283.4" cy="79.3" r="1.6" fill="#bbb" /><circle cx="303.8" cy="79.3" r="1.6" fill="#bbb" /><circle cx="324.1" cy="79.3" r="1.6" fill="#bbb" /><circle cx="344.4" cy="79.3" r="1.6" fill="#bbb" /><circle cx="364.7" cy="79.3" r="1.6" fill="#bbb" /><circle cx="19.3" cy="99.6" r="1.6" fill="#bbb" /><circle cx="39.6" cy="99.6" r="1.6" fill="#bbb" /><circle cx="59.9" cy="99.6" r="1.6" fill="#bbb" /><circle cx="80.2" cy="99.6" r="1.6" fill="#bbb" /><circle cx="100.6" cy="99.6" r="1.6" fill="#bbb" /><circle cx="120.9" cy="99.6" r="1.6" fill="#bbb" /><circle cx="141.2" cy="99.6" r="1.6" fill="#bbb" /><circle cx="161.5" cy="99.6" r="1.6" fill="#bbb" /><circle cx="181.8" cy="99.6" r="1.6" fill="#bbb" /><circle cx="202.2" cy="99.6" r="1.6" fill="#bbb" /><circle cx="222.5" cy="99.6" r="1.6" fill="#bbb" /><circle cx="242.8" cy="99.6" r="1.6" fill="#bbb" /><circle cx="263.1" cy="99.6" r="1.6" fill="#bbb" /><circle cx="283.4" cy="99.6" r="1.6" fill="#bbb" /><circle cx="303.8" cy="99.6" r="1.6" fill="#bbb" /><circle cx="324.1" cy="99.6" r="1.6" fill="#bbb" /><circle cx="344.4" cy="99.6" r="1.6" fill="#bbb" /><circle cx="364.7" cy="99.6" r="1.6" fill="#bbb" /><circle cx="19.3" cy="119.9" r="1.6" fill="#bbb" /><circle cx="39.6" cy="119.9" r="1.6" fill="#bbb" /><circle cx="59.9" cy="119.9" r="1.6" fill="#bbb" /><circle cx="80.2" cy="119.9" r="1.6" fill="#bbb" /><circle cx="100.6" cy="119.9" r="1.6" fill="#bbb" /><circle cx="120.9" cy="119.9" r="1.6" fill="#bbb" /><circle cx="141.2" cy="119.9" r="1.6" fill="#bbb" /><circle cx="161.5" cy="119.9" r="1.6" fill="#bbb" /><circle cx="181.8" cy="119.9" r="1.6" fill="#bbb" /><circle cx="202.2" cy="119.9" r="1.6" fill="#bbb" /><circle cx="222.5" cy="119.9" r="1.6" fill="#bbb" /><circle cx="242.8" cy="119.9" r="1.6" fill="#bbb" /><circle cx="263.1" cy="119.9" r="1.6" fill="#bbb" /><circle cx="283.4" cy="119.9" r="1.6" fill="#bbb" /><circle cx="303.8" cy="119.9" r="1.6" fill="#bbb" /><circle cx="324.1" cy="119.9" r="1.6" fill="#bbb" /><circle cx="344.4" cy="119.9" r="1.6" fill="#bbb" /><circle cx="364.7" cy="119.9" r="1.6" fill="#bbb" /><circle cx="19.3" cy="140.2" r="1.6" fill="#bbb" /><circle cx="39.6" cy="140.2" r="1.6" fill="#bbb" /><circle cx="59.9" cy="140.2" r="1.6" fill="#bbb" /><circle cx="80.2" cy="140.2" r="1.6" fill="#bbb" /><circle cx="100.6" cy="140.2" r="1.6" fill="#bbb" /><circle cx="120.9" cy="140.2" r="1.6" fill="#bbb" /><circle cx="141.2" cy="140.2" r="1.6" fill="#bbb" /><circle cx="161.5" cy="140.2" r="1.6" fill="#bbb" /><circle cx="181.8" cy="140.2" r="1.6" fill="#bbb" /><circle cx="202.2" cy="140.2" r="1.6" fill="#bbb" /><circle cx="222.5" cy="140.2" r="1.6" fill="#bbb" /><circle cx="242.8" cy="140.2" r="1.6" fill="#bbb" /><circle cx="263.1" cy="140.2" r="1.6" fill="#bbb" /><circle cx="283.4" cy="140.2" r="1.6" fill="#bbb" /><circle cx="303.8" cy="140.2" r="1.6" fill="#bbb" /><circle cx="324.1" cy="140.2" r="1.6" fill="#bbb" /><circle cx="344.4" cy="140.2" r="1.6" fill="#bbb" /><circle cx="364.7" cy="140.2" r="1.6" fill="#bbb" /><circle cx="19.3" cy="160.6" r="1.6" fill="#bbb" /><circle cx="39.6" cy="160.6" r="1.6" fill="#bbb" /><circle cx="59.9" cy="160.6" r="1.6" fill="#bbb" /><circle cx="80.2" cy="160.6" r="1.6" fill="#bbb" /><circle cx="100.6" cy="160.6" r="1.6" fill="#bbb" /><circle cx="120.9" cy="160.6" r="1.6" fill="#bbb" /><circle cx="141.2" cy="160.6" r="1.6" fill="#bbb" /><circle cx="161.5" cy="160.6" r="1.6" fill="#bbb" /><circle cx="181.8" cy="160.6" r="1.6" fill="#bbb" /><circle cx="202.2" cy="160.6" r="1.6" fill="#bbb" /><circle cx="222.5" cy="160.6" r="1.6" fill="#bbb" /><circle cx="242.8" cy="160.6" r="1.6" fill="#bbb" /><circle cx="263.1" cy="160.6" r="1.6" fill="#bbb" /><circle cx="283.4" cy="160.6" r="1.6" fill="#bbb" /><circle cx="303.8" cy="160.6" r="1.6" fill="#bbb" /><circle cx="324.1" cy="160.6" r="1.6" fill="#bbb" /><circle cx="344.4" cy="160.6" r="1.6" fill="#bbb" /><circle cx="364.7" cy="160.6" r="1.6" fill="#bbb" /><circle cx="19.3" cy="180.9" r="1.6" fill="#bbb" /><circle cx="39.6" cy="180.9" r="1.6" fill="#bbb" /><circle cx="59.9" cy="180.9" r="1.6" fill="#bbb" /><circle cx="80.2" cy="180.9" r="1.6" fill="#bbb" /><circle cx="100.6" cy="180.9" r="1.6" fill="#bbb" /><circle cx="120.9" cy="180.9" r="1.6" fill="#bbb" /><circle cx="141.2" cy="180.9" r="1.6" fill="#bbb" /><circle cx="161.5" cy="180.9" r="1.6" fill="#bbb" /><circle cx="181.8" cy="180.9" r="1.6" fill="#bbb" /><circle cx="202.2" cy="180.9" r="1.6" fill="#bbb" /><circle cx="222.5" cy="180.9" r="1.6" fill="#bbb" /><circle cx="242.8" cy="180.9" r="1.6" fill="#bbb" /><circle cx="263.1" cy="180.9" r="1.6" fill="#bbb" /><circle cx="283.4" cy="180.9" r="1.6" fill="#bbb" /><circle cx="303.8" cy="180.9" r="1.6" fill="#bbb" /><circle cx="324.1" cy="180.9" r="1.6" fill="#bbb" /><circle cx="344.4" cy="180.9" r="1.6" fill="#bbb" /><circle cx="364.7" cy="180.9" r="1.6" fill="#bbb" /><circle cx="19.3" cy="201.2" r="1.6" fill="#bbb" /><circle cx="39.6" cy="201.2" r="1.6" fill="#bbb" /><circle cx="59.9" cy="201.2" r="1.6" fill="#bbb" /><circle cx="80.2" cy="201.2" r="1.6" fill="#bbb" /><circle cx="100.6" cy="201.2" r="1.6" fill="#bbb" /><circle cx="120.9" cy="201.2" r="1.6" fill="#bbb" /><circle cx="141.2" cy="201.2" r="1.6" fill="#bbb" /><circle cx="161.5" cy="201.2" r="1.6" fill="#bbb" /><circle cx="181.8" cy="201.2" r="1.6" fill="#bbb" /><circle cx="202.2" cy="201.2" r="1.6" fill="#bbb" /><circle cx="222.5" cy="201.2" r="1.6" fill="#bbb" /><circle cx="242.8" cy="201.2" r="1.6" fill="#bbb" /><circle cx="263.1" cy="201.2" r="1.6" fill="#bbb" /><circle cx="283.4" cy="201.2" r="1.6" fill="#bbb" /><circle cx="303.8" cy="201.2" r="1.6" fill="#bbb" /><circle cx="324.1" cy="201.2" r="1.6" fill="#bbb" /><circle cx="344.4" cy="201.2" r="1.6" fill="#bbb" /><circle cx="364.7" cy="201.2" r="1.6" fill="#bbb" /><circle cx="19.3" cy="221.5" r="1.6" fill="#bbb" /><circle cx="39.6" cy="221.5" r="1.6" fill="#bbb" /><circle cx="59.9" cy="221.5" r="1.6" fill="#bbb" /><circle cx="80.2" cy="221.5" r="1.6" fill="#bbb" /><circle cx="100.6" cy="221.5" r="1.6" fill="#bbb" /><circle cx="120.9" cy="221.5" r="1.6" fill="#bbb" /><circle cx="141.2" cy="221.5" r="1.6" fill="#bbb" /><circle cx="161.5" cy="221.5" r="1.6" fill="#bbb" /><circle cx="181.8" cy="221.5" r="1.6" fill="#bbb" /><circle cx="202.2" cy="221.5" r="1.6" fill="#bbb" /><circle cx="222.5" cy="221.5" r="1.6" fill="#bbb" /><circle cx="242.8" cy="221.5" r="1.6" fill="#bbb" /><circle cx="263.1" cy="221.5" r="1.6" fill="#bbb" /><circle cx="283.4" cy="221.5" r="1.6" fill="#bbb" /><circle cx="303.8" cy="221.5" r="1.6" fill="#bbb" /><circle cx="324.1" cy="221.5" r="1.6" fill="#bbb" /><circle cx="344.4" cy="221.5" r="1.6" fill="#bbb" /><circle cx="364.7" cy="221.5" r="1.6" fill="#bbb" /><circle cx="19.3" cy="241.8" r="1.6" fill="#bbb" /><circle cx="39.6" cy="241.8" r="1.6" fill="#bbb" /><circle cx="59.9" cy="241.8" r="1.6" fill="#bbb" /><circle cx="80.2" cy="241.8" r="1.6" fill="#bbb" /><circle cx="100.6" cy="241.8" r="1.6" fill="#bbb" /><circle cx="120.9" cy="241.8" r="1.6" fill="#bbb" /><circle cx="141.2" cy="241.8" r="1.6" fill="#bbb" /><circle cx="161.5" cy="241.8" r="1.6" fill="#bbb" /><circle cx="181.8" cy="241.8" r="1.6" fill="#bbb" /><circle cx="202.2" cy="241.8" r="1.6" fill="#bbb" /><circle cx="222.5" cy="241.8" r="1.6" fill="#bbb" /><circle cx="242.8" cy="241.8" r="1.6" fill="#bbb" /><circle cx="263.1" cy="241.8" r="1.6" fill="#bbb" /><circle cx="283.4" cy="241.8" r="1.6" fill="#bbb" /><circle cx="303.8" cy="241.8" r="1.6" fill="#bbb" /><circle cx="324.1" cy="241.8" r="1.6" fill="#bbb" /><circle cx="344.4" cy="241.8" r="1.6" fill="#bbb" /><circle cx="364.7" cy="241.8" r="1.6" fill="#bbb" /><circle cx="19.3" cy="262.2" r="1.6" fill="#bbb" /><circle cx="39.6" cy="262.2" r="1.6" fill="#bbb" /><circle cx="59.9" cy="262.2" r="1.6" fill="#bbb" /><circle cx="80.2" cy="262.2" r="1.6" fill="#bbb" /><circle cx="100.6" cy="262.2" r="1.6" fill="#bbb" /><circle cx="120.9" cy="262.2" r="1.6" fill="#bbb" /><circle cx="141.2" cy="262.2" r="1.6" fill="#bbb" /><circle cx="161.5" cy="262.2" r="1.6" fill="#bbb" /><circle cx="181.8" cy="262.2" r="1.6" fill="#bbb" /><circle cx="202.2" cy="262.2" r="1.6" fill="#bbb" /><circle cx="222.5" cy="262.2" r="1.6" fill="#bbb" /><circle cx="242.8" cy="262.2" r="1.6" fill="#bbb" /><circle cx="263.1" cy="262.2" r="1.6" fill="#bbb" /><circle cx="283.4" cy="262.2" r="1.6" fill="#bbb" /><circle cx="303.8" cy="262.2" r="1.6" fill="#bbb" /><circle cx="324.1" cy="262.2" r="1.6" fill="#bbb" /><circle cx="344.4" cy="262.2" r="1.6" fill="#bbb" /><circle cx="364.7" cy="262.2" r="1.6" fill="#bbb" /><circle cx="19.3" cy="282.5" r="1.6" fill="#bbb" /><circle cx="39.6" cy="282.5" r="1.6" fill="#bbb" /><circle cx="59.9" cy="282.5" r="1.6" fill="#bbb" /><circle cx="80.2" cy="282.5" r="1.6" fill="#bbb" /><circle cx="100.6" cy="282.5" r="1.6" fill="#bbb" /><circle cx="120.9" cy="282.5" r="1.6" fill="#bbb" /><circle cx="141.2" cy="282.5" r="1.6" fill="#bbb" /><circle cx="161.5" cy="282.5" r="1.6" fill="#bbb" /><circle cx="181.8" cy="282.5" r="1.6" fill="#bbb" /><circle cx="202.2" cy="282.5" r="1.6" fill="#bbb" /><circle cx="222.5" cy="282.5" r="1.6" fill="#bbb" /><circle cx="242.8" cy="282.5" r="1.6" fill="#bbb" /><circle cx="263.1" cy="282.5" r="1.6" fill="#bbb" /><circle cx="283.4" cy="282.5" r="1.6" fill="#bbb" /><circle cx="303.8" cy="282.5" r="1.6" fill="#bbb" /><circle cx="324.1" cy="282.5" r="1.6" fill="#bbb" /><circle cx="344.4" cy="282.5" r="1.6" fill="#bbb" /><circle cx="364.7" cy="282.5" r="1.6" fill="#bbb" /><circle cx="19.3" cy="302.8" r="1.6" fill="#bbb" /><circle cx="39.6" cy="302.8" r="1.6" fill="#bbb" /><circle cx="59.9" cy="302.8" r="1.6" fill="#bbb" /><circle cx="80.2" cy="302.8" r="1.6" fill="#bbb" /><circle cx="100.6" cy="302.8" r="1.6" fill="#bbb" /><circle cx="120.9" cy="302.8" r="1.6" fill="#bbb" /><circle cx="141.2" cy="302.8" r="1.6" fill="#bbb" /><circle cx="161.5" cy="302.8" r="1.6" fill="#bbb" /><circle cx="181.8" cy="302.8" r="1.6" fill="#bbb" /><circle cx="202.2" cy="302.8" r="1.6" fill="#bbb" /><circle cx="222.5" cy="302.8" r="1.6" fill="#bbb" /><circle cx="242.8" cy="302.8" r="1.6" fill="#bbb" /><circle cx="263.1" cy="302.8" r="1.6" fill="#bbb" /><circle cx="283.4" cy="302.8" r="1.6" fill="#bbb" /><circle cx="303.8" cy="302.8" r="1.6" fill="#bbb" /><circle cx="324.1" cy="302.8" r="1.6" fill="#bbb" /><circle cx="344.4" cy="302.8" r="1.6" fill="#bbb" /><circle cx="364.7" cy="302.8" r="1.6" fill="#bbb" /><circle cx="19.3" cy="323.1" r="1.6" fill="#bbb" /><circle cx="39.6" cy="323.1" r="1.6" fill="#bbb" /><circle cx="59.9" cy="323.1" r="1.6" fill="#bbb" /><circle cx="80.2" cy="323.1" r="1.6" fill="#bbb" /><circle cx="100.6" cy="323.1" r="1.6" fill="#bbb" /><circle cx="120.9" cy="323.1" r="1.6" fill="#bbb" /><circle cx="141.2" cy="323.1" r="1.6" fill="#bbb" /><circle cx="161.5" cy="323.1" r="1.6" fill="#bbb" /><circle cx="181.8" cy="323.1" r="1.6" fill="#bbb" /><circle cx="202.2" cy="323.1" r="1.6" fill="#bbb" /><circle cx="222.5" cy="323.1" r="1.6" fill="#bbb" /><circle cx="242.8" cy="323.1" r="1.6" fill="#bbb" /><circle cx="263.1" cy="323.1" r="1.6" fill="#bbb" /><circle cx="283.4" cy="323.1" r="1.6" fill="#bbb" /><circle cx="303.8" cy="323.1" r="1.6" fill="#bbb" /><circle cx="324.1" cy="323.1" r="1.6" fill="#bbb" /><circle cx="344.4" cy="323.1" r="1.6" fill="#bbb" /><circle cx="364.7" cy="323.1" r="1.6" fill="#bbb" /><circle cx="19.3" cy="343.4" r="1.6" fill="#bbb" /><circle cx="39.6" cy="343.4" r="1.6" fill="#bbb" /><circle cx="59.9" cy="343.4" r="1.6" fill="#bbb" /><circle cx="80.2" cy="343.4" r="1.6" fill="#bbb" /><circle cx="100.6" cy="343.4" r="1.6" fill="#bbb" /><circle cx="120.9" cy="343.4" r="1.6" fill="#bbb" /><circle cx="141.2" cy="343.4" r="1.6" fill="#bbb" /><circle cx="161.5" cy="343.4" r="1.6" fill="#bbb" /><circle cx="181.8" cy="343.4" r="1.6" fill="#bbb" /><circle cx="202.2" cy="343.4" r="1.6" fill="#bbb" /><circle cx="222.5" cy="343.4" r="1.6" fill="#bbb" /><circle cx="242.8" cy="343.4" r="1.6" fill="#bbb" /><circle cx="263.1" cy="343.4" r="1.6" fill="#bbb" /><circle cx="283.4" cy="343.4" r="1.6" fill="#bbb" /><circle cx="303.8" cy="343.4" r="1.6" fill="#bbb" /><circle cx="324.1" cy="343.4" r="1.6" fill="#bbb" /><circle cx="344.4" cy="343.4" r="1.6" fill="#bbb" /><circle cx="364.7" cy="343.4" r="1.6" fill="#bbb" /><circle cx="19.3" cy="363.8" r="1.6" fill="#bbb" /><circle cx="39.6" cy="363.8" r="1.6" fill="#bbb" /><circle cx="59.9" cy="363.8" r="1.6" fill="#bbb" /><circle cx="80.2" cy="363.8" r="1.6" fill="#bbb" /><circle cx="100.6" cy="363.8" r="1.6" fill="#bbb" /><circle cx="120.9" cy="363.8" r="1.6" fill="#bbb" /><circle cx="141.2" cy="363.8" r="1.6" fill="#bbb" /><circle cx="161.5" cy="363.8" r="1.6" fill="#bbb" /><circle cx="181.8" cy="363.8" r="1.6" fill="#bbb" /><circle cx="202.2" cy="363.8" r="1.6" fill="#bbb" /><circle cx="222.5" cy="363.8" r="1.6" fill="#bbb" /><circle cx="242.8" cy="363.8" r="1.6" fill="#bbb" /><circle cx="263.1" cy="363.8" r="1.6" fill="#bbb" /><circle cx="283.4" cy="363.8" r="1.6" fill="#bbb" /><circle cx="303.8" cy="363.8" r="1.6" fill="#bbb" /><circle cx="324.1" cy="363.8" r="1.6" fill="#bbb" /><circle cx="344.4" cy="363.8" r="1.6" fill="#bbb" /><circle cx="364.7" cy="363.8" r="1.6" fill="#bbb" /><circle cx="19.3" cy="384.1" r="1.6" fill="#bbb" /><circle cx="39.6" cy="384.1" r="1.6" fill="#bbb" /><circle cx="59.9" cy="384.1" r="1.6" fill="#bbb" /><circle cx="80.2" cy="384.1" r="1.6" fill="#bbb" /><circle cx="100.6" cy="384.1" r="1.6" fill="#bbb" /><circle cx="120.9" cy="384.1" r="1.6" fill="#bbb" /><circle cx="141.2" cy="384.1" r="1.6" fill="#bbb" /><circle cx="161.5" cy="384.1" r="1.6" fill="#bbb" /><circle cx="181.8" cy="384.1" r="1.6" fill="#bbb" /><circle cx="202.2" cy="384.1" r="1.6" fill="#bbb" /><circle cx="222.5" cy="384.1" r="1.6" fill="#bbb" /><circle cx="242.8" cy="384.1" r="1.6" fill="#bbb" /><circle cx="263.1" cy="384.1" r="1.6" fill="#bbb" /><circle cx="283.4" cy="384.1" r="1.6" fill="#bbb" /><circle cx="303.8" cy="384.1" r="1.6" fill="#bbb" /><circle cx="324.1" cy="384.1" r="1.6" fill="#bbb" /><circle cx="344.4" cy="384.1" r="1.6" fill="#bbb" /><circle cx="364.7" cy="384.1" r="1.6" fill="#bbb" /><circle cx="19.3" cy="404.4" r="1.6" fill="#bbb" /><circle cx="39.6" cy="404.4" r="1.6" fill="#bbb" /><circle cx="59.9" cy="404.4" r="1.6" fill="#bbb" /><circle cx="80.2" cy="404.4" r="1.6" fill="#bbb" /><circle cx="100.6" cy="404.4" r="1.6" fill="#bbb" /><circle cx="120.9" cy="404.4" r="1.6" fill="#bbb" /><circle cx="141.2" cy="404.4" r="1.6" fill="#bbb" /><circle cx="161.5" cy="404.4" r="1.6" fill="#bbb" /><circle cx="181.8" cy="404.4" r="1.6" fill="#bbb" /><circle cx="202.2" cy="404.4" r="1.6" fill="#bbb" /><circle cx="222.5" cy="404.4" r="1.6" fill="#bbb" /><circle cx="242.8" cy="404.4" r="1.6" fill="#bbb" /><circle cx="263.1" cy="404.4" r="1.6" fill="#bbb" /><circle cx="283.4" cy="404.4" r="1.6" fill="#bbb" /><circle cx="303.8" cy="404.4" r="1.6" fill="#bbb" /><circle cx="324.1" cy="404.4" r="1.6" fill="#bbb" /><circle cx="344.4" cy="404.4" r="1.6" fill="#bbb" /><circle cx="364.7" cy="404.4" r="1.6" fill="#bbb" /><circle cx="19.3" cy="424.7" r="1.6" fill="#bbb" /><circle cx="39.6" cy="424.7" r="1.6" fill="#bbb" /><circle cx="59.9" cy="424.7" r="1.6" fill="#bbb" /><circle cx="80.2" cy="424.7" r="1.6" fill="#bbb" /><circle cx="100.6" cy="424.7" r="1.6" fill="#bbb" /><circle cx="120.9" cy="424.7" r="1.6" fill="#bbb" /><circle cx="141.2" cy="424.7" r="1.6" fill="#bbb" /><circle cx="161.5" cy="424.7" r="1.6" fill="#bbb" /><circle cx="181.8" cy="424.7" r="1.6" fill="#bbb" /><circle cx="202.2" cy="424.7" r="1.6" fill="#bbb" /><circle cx="222.5" cy="424.7" r="1.6" fill="#bbb" /><circle cx="242.8" cy="424.7" r="1.6" fill="#bbb" /><circle cx="263.1" cy="424.7" r="1.6" fill="#bbb" /><circle cx="283.4" cy="424.7" r="1.6" fill="#bbb" /><circle cx="303.8" cy="424.7" r="1.6" fill="#bbb" /><circle cx="324.1" cy="424.7" r="1.6" fill="#bbb" /><circle cx="344.4" cy="424.7" r="1.6" fill="#bbb" /><circle cx="364.7" cy="424.7" r="1.6" fill="#bbb" /><circle cx="19.3" cy="445.0" r="1.6" fill="#bbb" /><circle cx="39.6" cy="445.0" r="1.6" fill="#bbb" /><circle cx="59.9" cy="445.0" r="1.6" fill="#bbb" /><circle cx="80.2" cy="445.0" r="1.6" fill="#bbb" /><circle cx="100.6" cy="445.0" r="1.6" fill="#bbb" /><circle cx="120.9" cy="445.0" r="1.6" fill="#bbb" /><circle cx="141.2" cy="445.0" r="1.6" fill="#bbb" /><circle cx="161.5" cy="445.0" r="1.6" fill="#bbb" /><circle cx="181.8" cy="445.0" r="1.6" fill="#bbb" /><circle cx="202.2" cy="445.0" r="1.6" fill="#bbb" /><circle cx="222.5" cy="445.0" r="1.6" fill="#bbb" /><circle cx="242.8" cy="445.0" r="1.6" fill="#bbb" /><circle cx="263.1" cy="445.0" r="1.6" fill="#bbb" /><circle cx="283.4" cy="445.0" r="1.6" fill="#bbb" /><circle cx="303.8" cy="445.0" r="1.6" fill="#bbb" /><circle cx="324.1" cy="445.0" r="1.6" fill="#bbb" /><circle cx="344.4" cy="445.0" r="1.6" fill="#bbb" /><circle cx="364.7" cy="445.0" r="1.6" fill="#bbb" /><circle cx="19.3" cy="465.4" r="1.6" fill="#bbb" /><circle cx="39.6" cy="465.4" r="1.6" fill="#bbb" /><circle cx="59.9" cy="465.4" r="1.6" fill="#bbb" /><circle cx="80.2" cy="465.4" r="1.6" fill="#bbb" /><circle cx="100.6" cy="465.4" r="1.6" fill="#bbb" /><circle cx="120.9" cy="465.4" r="1.6" fill="#bbb" /><circle cx="141.2" cy="465.4" r="1.6" fill="#bbb" /><circle cx="161.5" cy="465.4" r="1.6" fill="#bbb" /><circle cx="181.8" cy="465.4" r="1.6" fill="#bbb" /><circle cx="202.2" cy="465.4" r="1.6" fill="#bbb" /><circle cx="222.5" cy="465.4" r="1.6" fill="#bbb" /><circle cx="242.8" cy="465.4" r="1.6" fill="#bbb" /><circle cx="263.1" cy="465.4" r="1.6" fill="#bbb" /><circle cx="283.4" cy="465.4" r="1.6" fill="#bbb" /><circle cx="303.8" cy="465.4" r="1.6" fill="#bbb" /><circle cx="324.1" cy="465.4" r="1.6" fill="#bbb" /><circle cx="344.4" cy="465.4" r="1.6" fill="#bbb" /><circle cx="364.7" cy="465.4" r="1.6" fill="#bbb" /><circle cx="19.3" cy="485.7" r="1.6" fill="#bbb" /><circle cx="39.6" cy="485.7" r="1.6" fill="#bbb" /><circle cx="59.9" cy="485.7" r="1.6" fill="#bbb" /><circle cx="80.2" cy="485.7" r="1.6" fill="#bbb" /><circle cx="100.6" cy="485.7" r="1.6" fill="#bbb" /><circle cx="120.9" cy="485.7" r="1.6" fill="#bbb" /><circle cx="141.2" cy="485.7" r="1.6" fill="#bbb" /><circle cx="161.5" cy="485.7" r="1.6" fill="#bbb" /><circle cx="181.8" cy="485.7" r="1.6" fill="#bbb" /><circle cx="202.2" cy="485.7" r="1.6" fill="#bbb" /><circle cx="222.5" cy="485.7" r="1.6" fill="#bbb" /><circle cx="242.8" cy="485.7" r="1.6" fill="#bbb" /><circle cx="263.1" cy="485.7" r="1.6" fill="#bbb" /><circle cx="283.4" cy="485.7" r="1.6" fill="#bbb" /><circle cx="303.8" cy="485.7" r="1.6" fill="#bbb" /><circle cx="324.1" cy="485.7" r="1.6" fill="#bbb" /><circle cx="344.4" cy="485.7" r="1.6" fill="#bbb" /><circle cx="364.7" cy="485.7" r="1.6" fill="#bbb" /><rect x="15.8" y="8.0" width="7" height="488.0" fill="0" fill-opacity="0.16" /><text x="19.3" y="20.8" font-size="10" text-anchor="middle" fill="0" font-weight="bold">GND</text><rect x="279.9" y="8.0" width="7" height="488.0" fill="13" fill-opacity="0.16" /><text x="283.4" y="20.8" font-size="10" text-anchor="middle" fill="13" font-weight="bold">5V</text><rect x="361.2" y="8.0" width="7" height="488.0" fill="17" fill-opacity="0.16" /><text x="364.7" y="20.8" font-size="10" text-anchor="middle" fill="17" font-weight="bold">12V</text><circle cx="19.3" cy="445.0" r="5.0" fill="#cde" stroke="#333" stroke-width="0.8" /><text x="19.3" y="446.4" font-size="6" text-anchor="middle" fill="#111">S</text><circle cx="59.9" cy="445.0" r="5.0" fill="#fda" stroke="#333" stroke-width="0.8" /><text x="59.9" y="446.4" font-size="6" text-anchor="middle" fill="#111">Q1/R</text><circle cx="100.6" cy="445.0" r="5.0" fill="#9cf" stroke="#333" stroke-width="0.8" /><text x="100.6" y="446.4" font-size="6" text-anchor="middle" fill="#111">G</text><circle cx="19.3" cy="404.4" r="5.0" fill="#cde" stroke="#333" stroke-width="0.8" /><text x="19.3" y="405.8" font-size="6" text-anchor="middle" fill="#111">S</text><circle cx="59.9" cy="404.4" r="5.0" fill="#fda" stroke="#333" stroke-width="0.8" /><text x="59.9" y="405.8" font-size="6" text-anchor="middle" fill="#111">Q2/Y</text><circle cx="100.6" cy="404.4" r="5.0" fill="#9cf" stroke="#333" stroke-width="0.8" /><text x="100.6" y="405.8" font-size="6" text-anchor="middle" fill="#111">G</text><circle cx="19.3" cy="363.8" r="5.0" fill="#cde" stroke="#333" stroke-width="0.8" /><text x="19.3" y="365.2" font-size="6" text-anchor="middle" fill="#111">S</text><circle cx="59.9" cy="363.8" r="5.0" fill="#fda" stroke="#333" stroke-width="0.8" /><text x="59.9" y="365.2" font-size="6" text-anchor="middle" fill="#111">Q3/G</text><circle cx="100.6" cy="363.8" r="5.0" fill="#9cf" stroke="#333" stroke-width="0.8" /><text x="100.6" y="365.2" font-size="6" text-anchor="middle" fill="#111">G</text><circle cx="120.9" cy="323.1" r="5.0" fill="#eea" stroke="#333" stroke-width="0.8" /><text x="120.9" y="324.5" font-size="6" text-anchor="middle" fill="#111">1k</text><circle cx="141.2" cy="323.1" r="5.0" fill="#eea" stroke="#333" stroke-width="0.8" /><text x="141.2" y="324.5" font-size="6" text-anchor="middle" fill="#111">1k</text><circle cx="161.5" cy="323.1" r="5.0" fill="#eea" stroke="#333" stroke-width="0.8" /><text x="161.5" y="324.5" font-size="6" text-anchor="middle" fill="#111">1k</text><circle cx="181.8" cy="323.1" r="5.0" fill="#fcc" stroke="#333" stroke-width="0.8" /><text x="181.8" y="324.5" font-size="6" text-anchor="middle" fill="#111">10k</text><circle cx="202.2" cy="323.1" r="5.0" fill="#fcc" stroke="#333" stroke-width="0.8" /><text x="202.2" y="324.5" font-size="6" text-anchor="middle" fill="#111">10k</text><circle cx="120.9" cy="282.5" r="5.0" fill="#eea" stroke="#333" stroke-width="0.8" /><text x="120.9" y="283.9" font-size="6" text-anchor="middle" fill="#111">1k</text><circle cx="141.2" cy="282.5" r="5.0" fill="#eea" stroke="#333" stroke-width="0.8" /><text x="141.2" y="283.9" font-size="6" text-anchor="middle" fill="#111">1k</text><circle cx="161.5" cy="282.5" r="5.0" fill="#eea" stroke="#333" stroke-width="0.8" /><text x="161.5" y="283.9" font-size="6" text-anchor="middle" fill="#111">1k</text><circle cx="181.8" cy="282.5" r="5.0" fill="#fcc" stroke="#333" stroke-width="0.8" /><text x="181.8" y="283.9" font-size="6" text-anchor="middle" fill="#111">10k</text><circle cx="202.2" cy="282.5" r="5.0" fill="#fcc" stroke="#333" stroke-width="0.8" /><text x="202.2" y="283.9" font-size="6" text-anchor="middle" fill="#111">10k</text><circle cx="120.9" cy="241.8" r="5.0" fill="#eea" stroke="#333" stroke-width="0.8" /><text x="120.9" y="243.2" font-size="6" text-anchor="middle" fill="#111">1k</text><circle cx="141.2" cy="241.8" r="5.0" fill="#eea" stroke="#333" stroke-width="0.8" /><text x="141.2" y="243.2" font-size="6" text-anchor="middle" fill="#111">1k</text><circle cx="161.5" cy="241.8" r="5.0" fill="#eea" stroke="#333" stroke-width="0.8" /><text x="161.5" y="243.2" font-size="6" text-anchor="middle" fill="#111">1k</text><circle cx="181.8" cy="241.8" r="5.0" fill="#fcc" stroke="#333" stroke-width="0.8" /><text x="181.8" y="243.2" font-size="6" text-anchor="middle" fill="#111">10k</text><circle cx="202.2" cy="241.8" r="5.0" fill="#fcc" stroke="#333" stroke-width="0.8" /><text x="202.2" y="243.2" font-size="6" text-anchor="middle" fill="#111">10k</text><text x="80.2" y="8.0" font-size="7" text-anchor="middle" fill="#555">GPIO25</text><text x="100.6" y="8.0" font-size="7" text-anchor="middle" fill="#555">GPIO26</text><text x="120.9" y="8.0" font-size="7" text-anchor="middle" fill="#555">GPIO27</text></svg>